REM DIRINDEX 1\2,1\4,1\3\5,1\3\6,1\3\7
REM DIRNAME cjc082,folder01,folder02,folder03,folder04,folder05,folder06
TITLE ""
FILE "CD3Track51.mp3" MP3
  TRACK 01 AUDIO
    TITLE "0:"
    INDEX 01 00:00:00
  TRACK 02 AUDIO
    TITLE "5:cjc082_3279"
    INDEX 01 00:00:31
  TRACK 03 AUDIO
    TITLE "0:"
    INDEX 01 00:01:38
  TRACK 04 AUDIO
    TITLE "6:cjc082_3280"
    INDEX 01 00:02:12
  TRACK 05 AUDIO
    TITLE "0:"
    INDEX 01 00:03:41
  TRACK 06 AUDIO
    TITLE "5:cjc082_3281"
    INDEX 01 00:04:15
  TRACK 07 AUDIO
    TITLE "0:"
    INDEX 01 00:05:54
  TRACK 08 AUDIO
    TITLE "6:cjc082_3282"
    INDEX 01 00:06:28
  TRACK 09 AUDIO
    TITLE "0:"
    INDEX 01 00:08:15
  TRACK 10 AUDIO
    TITLE "5:cjc082_3283"
    INDEX 01 00:08:62
  TRACK 11 AUDIO
    TITLE "0:"
    INDEX 01 00:10:00
  TRACK 12 AUDIO
    TITLE "6:cjc082_3284"
    INDEX 01 00:10:49
  TRACK 13 AUDIO
    TITLE "0:"
    INDEX 01 00:12:18
  TRACK 14 AUDIO
    TITLE "5:cjc082_3285"
    INDEX 01 00:12:63
  TRACK 15 AUDIO
    TITLE "0:"
    INDEX 01 00:13:71
  TRACK 16 AUDIO
    TITLE "6:cjc082_3286"
    INDEX 01 00:14:43
  TRACK 17 AUDIO
    TITLE "0:"
    INDEX 01 00:16:42
  TRACK 18 AUDIO
    TITLE "5:cjc082_3287"
    INDEX 01 00:17:12
  TRACK 19 AUDIO
    TITLE "0:"
    INDEX 01 00:18:23
  TRACK 20 AUDIO
    TITLE "6:cjc082_3288"
    INDEX 01 00:19:09
  TRACK 21 AUDIO
    TITLE "0:"
    INDEX 01 00:20:10
  TRACK 22 AUDIO
    TITLE "5:cjc082_3289"
    INDEX 01 00:20:53
  TRACK 23 AUDIO
    TITLE "0:"
    INDEX 01 00:21:58
  TRACK 24 AUDIO
    TITLE "6:cjc082_3290"
    INDEX 01 00:22:32
  TRACK 25 AUDIO
    TITLE "0:"
    INDEX 01 00:24:74
  TRACK 26 AUDIO
    TITLE "5:cjc082_3291"
    INDEX 01 00:25:48
  TRACK 27 AUDIO
    TITLE "0:"
    INDEX 01 00:26:62
  TRACK 28 AUDIO
    TITLE "6:cjc082_3292"
    INDEX 01 00:27:38
  TRACK 29 AUDIO
    TITLE "0:"
    INDEX 01 00:29:33
  TRACK 30 AUDIO
    TITLE "5:cjc082_3293"
    INDEX 01 00:30:03
  TRACK 31 AUDIO
    TITLE "0:"
    INDEX 01 00:31:65
  TRACK 32 AUDIO
    TITLE "6:cjc082_3294"
    INDEX 01 00:32:35
  TRACK 33 AUDIO
    TITLE "0:"
    INDEX 01 00:34:18
  TRACK 34 AUDIO
    TITLE "5:cjc082_3295"
    INDEX 01 00:34:59
  TRACK 35 AUDIO
    TITLE "0:"
    INDEX 01 00:35:68
  TRACK 36 AUDIO
    TITLE "6:cjc082_3296"
    INDEX 01 00:36:44
  TRACK 37 AUDIO
    TITLE "0:"
    INDEX 01 00:37:57
  TRACK 38 AUDIO
    TITLE "5:cjc082_3297"
    INDEX 01 00:38:33
  TRACK 39 AUDIO
    TITLE "0:"
    INDEX 01 00:39:56
  TRACK 40 AUDIO
    TITLE "6:cjc082_3298"
    INDEX 01 00:40:32
  TRACK 41 AUDIO
    TITLE "0:"
    INDEX 01 00:41:53
  TRACK 42 AUDIO
    TITLE "5:cjc082_3299"
    INDEX 01 00:42:23
  TRACK 43 AUDIO
    TITLE "0:"
    INDEX 01 00:44:03
  TRACK 44 AUDIO
    TITLE "6:cjc082_3300"
    INDEX 01 00:44:50
  TRACK 45 AUDIO
    TITLE "0:"
    INDEX 01 00:45:59
  TRACK 46 AUDIO
    TITLE "5:cjc082_3301"
    INDEX 01 00:46:31
  TRACK 47 AUDIO
    TITLE "0:"
    INDEX 01 00:47:42
  TRACK 48 AUDIO
    TITLE "6:cjc082_3302"
    INDEX 01 00:48:14
  TRACK 49 AUDIO
    TITLE "0:"
    INDEX 01 00:49:65
  TRACK 50 AUDIO
    TITLE "5:cjc082_3303"
    INDEX 01 00:50:33
  TRACK 51 AUDIO
    TITLE "0:"
    INDEX 01 00:51:50
  TRACK 52 AUDIO
    TITLE "6:cjc082_3304"
    INDEX 01 00:52:22
  TRACK 53 AUDIO
    TITLE "0:"
    INDEX 01 00:53:25
  TRACK 54 AUDIO
    TITLE "5:cjc082_3305"
    INDEX 01 00:53:74
  TRACK 55 AUDIO
    TITLE "0:"
    INDEX 01 00:55:46
  TRACK 56 AUDIO
    TITLE "6:cjc082_3306"
    INDEX 01 00:56:16
  TRACK 57 AUDIO
    TITLE "0:"
    INDEX 01 00:58:18
  TRACK 58 AUDIO
    TITLE "7:cjc082_3307"
    INDEX 01 00:59:57
  TRACK 59 AUDIO
    TITLE "0:"
    INDEX 01 01:10:43
